<svg width="268" height="268" viewBox="0 0 268 268" fill="none" xmlns="http://www.w3.org/2000/svg">
<circle cx="134" cy="134" r="134" fill="#1472CE"/>
<path d="M86.0724 125.364H66.8452C66.7088 123.773 66.3452 122.33 65.7543 121.034C65.1861 119.739 64.3906 118.625 63.3679 117.693C62.3679 116.739 61.152 116.011 59.7202 115.511C58.2884 114.989 56.6634 114.727 54.8452 114.727C51.6634 114.727 48.9702 115.5 46.7656 117.045C44.5838 118.591 42.9247 120.807 41.7884 123.693C40.6747 126.58 40.1179 130.045 40.1179 134.091C40.1179 138.364 40.6861 141.943 41.8224 144.83C42.9815 147.693 44.652 149.852 46.8338 151.307C49.0156 152.739 51.6406 153.455 54.7088 153.455C56.4588 153.455 58.027 153.239 59.4134 152.807C60.7997 152.352 62.0043 151.705 63.027 150.864C64.0497 150.023 64.8793 149.011 65.5156 147.83C66.1747 146.625 66.6179 145.273 66.8452 143.773L86.0724 143.909C85.8452 146.864 85.0156 149.875 83.5838 152.943C82.152 155.989 80.1179 158.807 77.4815 161.398C74.8679 163.966 71.6293 166.034 67.7656 167.602C63.902 169.17 59.4134 169.955 54.2997 169.955C47.8906 169.955 42.1406 168.58 37.0497 165.83C31.9815 163.08 27.9702 159.034 25.0156 153.693C22.0838 148.352 20.6179 141.818 20.6179 134.091C20.6179 126.318 22.1179 119.773 25.1179 114.455C28.1179 109.114 32.1634 105.08 37.2543 102.352C42.3452 99.6023 48.027 98.2273 54.2997 98.2273C58.7088 98.2273 62.7656 98.8295 66.4702 100.034C70.1747 101.239 73.4247 103 76.2202 105.318C79.0156 107.614 81.2656 110.443 82.9702 113.807C84.6747 117.17 85.7088 121.023 86.0724 125.364ZM94.6719 99.1818H118.263L134.49 138.727H135.308L151.536 99.1818H175.126V169H156.581V128.636H156.036L140.49 168.455H129.308L113.763 128.364H113.217V169H94.6719V99.1818ZM184.109 169V99.1818H203.064V126.455H228.155V99.1818H247.109V169H228.155V141.727H203.064V169H184.109Z" fill="white"/>
</svg>
